<?xml version="1.0" encoding="UTF-8"?>
<svg id="Layer_1" data-name="Layer 1" xmlns="http://www.w3.org/2000/svg" viewBox="0 0 64 64">
  <defs>
    <style>
      .cls-1 {
        fill: #6dcdb8;
      }

      .cls-1, .cls-2 {
        stroke-width: 0px;
      }

      .cls-2 {
        fill: #fe5000;
      }
    </style>
  </defs>
  <path class="cls-2" d="m42.35,31.77h-20.71c-.47,0-.86.39-.86.86,0,6.18,5.03,11.21,11.21,11.21s11.21-5.03,11.21-11.21c0-.47-.39-.86-.86-.86Zm-10.35,10.35c-4.94,0-9.02-3.8-9.45-8.63h18.91c-.44,4.83-4.51,8.63-9.45,8.63Z"/>
  <path class="cls-1" d="m42.07,10.79l-9.51-8.29c-.32-.28-.81-.28-1.13,0l-9.51,8.29c-.27.24-.37.61-.24.95s.45.56.8.56h3.59v16.38c0,.47.39.86.86.86h10.13c.47,0,.86-.39.86-.86V12.3h3.59c.36,0,.68-.22.81-.56s.03-.71-.24-.95Zm-5.01-.21c-.47,0-.86.39-.86.86v16.38h-8.41V11.44c0-.47-.39-.86-.86-.86h-2.15l7.21-6.29,7.21,6.29h-2.15Z"/>
  <path class="cls-2" d="m60.62,34.63v.95c0,.59-.48,1.08-1.08,1.08-3.04,0-5.65,1.75-6.82,4.56-1.17,2.81-.55,5.9,1.6,8.05.42.42.42,1.1,0,1.52l-4.17,4.17c-.2.2-.47.32-.76.32s-.56-.11-.76-.32c-2.15-2.15-5.23-2.76-8.05-1.6-2.81,1.17-4.56,3.78-4.56,6.82,0,.59-.48,1.08-1.08,1.08h-5.9c-.59,0-1.08-.48-1.08-1.08,0-3.04-1.75-5.66-4.56-6.82-.94-.39-1.91-.58-2.87-.58-1.9,0-3.74.75-5.18,2.18-.2.2-.47.32-.76.32s-.56-.11-.76-.32l-4.17-4.17c-.2-.2-.32-.47-.32-.76s.11-.56.32-.76c2.15-2.15,2.76-5.23,1.6-8.05-1.17-2.81-3.78-4.56-6.82-4.56-.59,0-1.08-.48-1.08-1.08v-2.09h13.38c.45,8.02,7.11,14.41,15.24,14.41s14.8-6.39,15.24-14.41h13.04l.99-1.72h-6.49v-6.98h.96c.38,1.43,1.69,2.49,3.24,2.49,1.85,0,3.35-1.5,3.35-3.35s-1.5-3.35-3.35-3.35c-1.55,0-2.86,1.06-3.24,2.49h-1.82c-.47,0-.86.39-.86.86v7.84h-3.58V13.87h6.25c.38,1.43,1.69,2.49,3.24,2.49,1.85,0,3.35-1.5,3.35-3.35s-1.5-3.35-3.35-3.35c-1.55,0-2.86,1.06-3.24,2.49h-7.11c-.47,0-.86.39-.86.86v18.76h-1.37c-.47,0-.86.39-.86.86,0,7.47-6.08,13.55-13.55,13.55s-13.55-6.08-13.55-13.55c0-.47-.39-.86-.86-.86h-1.37V13.01c0-.47-.39-.86-.86-.86h-7.11c-.38-1.43-1.69-2.49-3.24-2.49-1.85,0-3.35,1.5-3.35,3.35s1.5,3.35,3.35,3.35c1.55,0,2.86-1.06,3.24-2.49h6.25v17.9h-3.58v-7.84c0-.47-.39-.86-.86-.86h-1.82c-.38-1.43-1.69-2.49-3.24-2.49-1.85,0-3.35,1.5-3.35,3.35s1.5,3.35,3.35,3.35c1.55,0,2.86-1.06,3.24-2.49h.96v6.98H2.52c-.47,0-.86.39-.86.86v2.95c0,1.54,1.25,2.8,2.8,2.8,2.33,0,4.34,1.34,5.23,3.5.89,2.16.43,4.52-1.22,6.17-.53.53-.82,1.23-.82,1.98s.29,1.45.82,1.98l4.17,4.17c.53.53,1.23.82,1.98.82s1.45-.29,1.98-.82c1.65-1.65,4.02-2.12,6.17-1.23,2.16.89,3.5,2.9,3.5,5.23,0,1.54,1.25,2.8,2.8,2.8h5.9c1.54,0,2.8-1.25,2.8-2.8,0-2.33,1.34-4.34,3.5-5.23,2.16-.89,4.52-.43,6.17,1.22.53.53,1.23.82,1.98.82s1.45-.29,1.98-.82l4.17-4.17c1.09-1.09,1.09-2.86,0-3.96-1.65-1.65-2.12-4.01-1.22-6.17.89-2.16,2.9-3.5,5.23-3.5,1.54,0,2.8-1.25,2.8-2.8v-2.95c0-.22-.09-.43-.23-.58l-1.49,2.58Zm-1.63-12.33c.9,0,1.63.73,1.63,1.63s-.73,1.63-1.63,1.63-1.63-.73-1.63-1.63.73-1.63,1.63-1.63Zm0-10.92c.9,0,1.63.73,1.63,1.63s-.73,1.63-1.63,1.63-1.63-.73-1.63-1.63.73-1.63,1.63-1.63ZM5.01,14.64c-.9,0-1.63-.73-1.63-1.63s.73-1.63,1.63-1.63,1.63.73,1.63,1.63-.73,1.63-1.63,1.63Zm0,10.92c-.9,0-1.63-.73-1.63-1.63s.73-1.63,1.63-1.63,1.63.73,1.63,1.63-.73,1.63-1.63,1.63Z"/>
</svg>