<?xml version="1.0" encoding="UTF-8"?>
<svg id="Layer_1" data-name="Layer 1" xmlns="http://www.w3.org/2000/svg" viewBox="0 0 64 64">
  <defs>
    <style>
      .cls-1, .cls-2 {
        fill: #6dcdb8;
      }

      .cls-1, .cls-2, .cls-3 {
        stroke-width: 0px;
      }

      .cls-2 {
        fill-rule: evenodd;
      }

      .cls-3 {
        fill: #fe5000;
      }
    </style>
  </defs>
  <path id="Shape" class="cls-1" d="m22.47,38.98c.22.09.48.09.7,0s.4-.27.5-.5l1.29-3.11h4.9l1.29,3.11c.2.47.73.69,1.2.49.47-.2.69-.73.49-1.2l-4.59-11.01c-.14-.34-.48-.56-.85-.56s-.7.22-.85.56l-4.59,11.01c-.09.22-.09.48,0,.7s.27.4.5.5h0Zm4.94-9.47l1.68,4.04h-3.36l1.68-4.04Z"/>
  <path id="Path" class="cls-2" d="m34.75,37.22c-.51,0-.92.41-.92.92s.41.92.92.92h5.51c.51,0,.92-.41.92-.92s-.41-.92-.92-.92h-1.84v-9.18h1.84c.51,0,.92-.41.92-.92s-.41-.92-.92-.92h-5.51c-.51,0-.92.41-.92.92s.41.92.92.92h1.84v9.18h-1.84Z"/>
  <path id="Shape-2" data-name="Shape" class="cls-3" d="m5.38,45.48c0,2.03,1.64,3.67,3.67,3.67.46,0,.92-.09,1.34-.26,2.17,1.66,5.23,2.53,8.99,2.53.57,0,1.16-.03,1.75-.07,2.67,5.45,6.51,8.81,10.85,8.81s8.19-3.37,10.86-8.81c.6.04,1.19.07,1.75.07,3.76,0,6.82-.87,8.99-2.53.43.17.88.26,1.34.26,1.62,0,3.05-1.07,3.51-2.62.46-1.55-.15-3.23-1.5-4.12.13-2.96-1.01-6.31-3.34-9.78,2.33-3.47,3.47-6.82,3.34-9.78,1.59-1.02,2.13-3.09,1.27-4.76s-2.87-2.42-4.62-1.71c-2.49-1.91-6.18-2.75-10.74-2.46-2.66-5.45-6.51-8.82-10.86-8.82s-8.19,3.37-10.86,8.82c-4.56-.3-8.24.55-10.74,2.46-1.75-.7-3.75.04-4.61,1.72-.87,1.67-.32,3.73,1.26,4.76-.13,2.95,1.02,6.31,3.34,9.78-2.33,3.47-3.47,6.83-3.34,9.78-1.04.68-1.66,1.83-1.67,3.07h0Zm1.84,0c0-1.01.82-1.84,1.84-1.84s1.84.82,1.84,1.84-.82,1.84-1.84,1.84c-.49,0-.95-.19-1.3-.54s-.54-.81-.54-1.3Zm15.06-29.63c2.44.29,4.85.83,7.18,1.61-1.64.73-3.25,1.55-4.81,2.45-1.56.9-3.08,1.89-4.54,2.95.48-2.4,1.21-4.75,2.16-7.01Zm21.6,7.01c-1.46-1.06-2.98-2.05-4.54-2.95-1.56-.9-3.16-1.71-4.8-2.45,2.33-.78,4.74-1.32,7.18-1.61.96,2.26,1.68,4.61,2.16,7.01Zm-2.16,26.54c-2.44-.29-4.85-.83-7.18-1.61,1.64-.73,3.25-1.55,4.81-2.45,1.56-.9,3.08-1.89,4.54-2.95-.48,2.4-1.21,4.75-2.16,7.01Zm-3.3-27.9c2.07,1.19,4.05,2.53,5.92,4.02.34,2.36.51,4.73.5,7.11,0,2.38-.17,4.76-.5,7.11-1.87,1.48-3.85,2.83-5.92,4.02-2.06,1.19-4.21,2.24-6.42,3.12-2.21-.88-4.36-1.93-6.42-3.12-2.07-1.19-4.05-2.53-5.92-4.02-.67-4.72-.67-9.5,0-14.22,1.87-1.48,3.85-2.82,5.92-4.02,2.07-1.19,4.21-2.24,6.43-3.12,2.21.88,4.36,1.93,6.42,3.12h0Zm7.98,5.75c1.83,1.62,3.49,3.42,4.96,5.38-1.47,1.95-3.13,3.75-4.96,5.38.18-1.79.27-3.58.27-5.38,0-1.8-.09-3.59-.27-5.38h0Zm-28.82,10.75c-1.83-1.62-3.49-3.42-4.96-5.38,1.47-1.95,3.13-3.75,4.96-5.38-.36,3.57-.36,7.18,0,10.75h0Zm7.07,7.34c1.56.9,3.16,1.71,4.8,2.45-2.33.78-4.74,1.32-7.18,1.61-.96-2.26-1.68-4.61-2.16-7.01,1.46,1.06,2.97,2.05,4.54,2.95h0Zm7.34,12.98c-3.45,0-6.58-2.73-8.89-7.17,3.04-.43,6.02-1.21,8.89-2.32,2.87,1.11,5.85,1.89,8.89,2.32-2.31,4.43-5.45,7.17-8.89,7.17Zm22.94-11.01c-1.01,0-1.84-.82-1.84-1.84s.82-1.84,1.84-1.84,1.84.82,1.84,1.84-.82,1.84-1.84,1.84Zm.19-5.49c-.07,0-.13-.02-.19-.02-2.03,0-3.67,1.64-3.67,3.67,0,.82.28,1.62.8,2.26-2,1.32-4.92,1.95-8.41,1.81,1.14-2.84,1.94-5.81,2.4-8.83,2.37-1.91,4.52-4.09,6.4-6.49,1.55,2.25,2.47,4.87,2.67,7.6Zm1.64-22.05c0,1.01-.82,1.84-1.84,1.84s-1.84-.82-1.84-1.84.82-1.84,1.84-1.84,1.84.82,1.84,1.84Zm-4.71-2.26c-.51.64-.79,1.44-.8,2.26,0,2.03,1.64,3.67,3.67,3.67.07,0,.13-.02.19-.02-.2,2.72-1.12,5.35-2.67,7.6-1.88-2.4-4.03-4.57-6.4-6.49-.46-3.03-1.27-5.99-2.41-8.83,3.5-.13,6.42.49,8.42,1.81h0ZM32,6.93c3.45,0,6.58,2.73,8.89,7.17-3.04.43-6.02,1.21-8.89,2.32-2.87-1.11-5.85-1.89-8.89-2.32,2.31-4.43,5.44-7.17,8.89-7.17h0Zm-22.94,11.01c1.01,0,1.84.82,1.84,1.84s-.82,1.84-1.84,1.84-1.84-.82-1.84-1.84.82-1.84,1.84-1.84Zm-.19,5.49c.07,0,.13.02.19.02,2.03,0,3.67-1.64,3.67-3.67,0-.82-.28-1.62-.8-2.26,2-1.32,4.92-1.94,8.41-1.81-1.14,2.84-1.94,5.81-2.4,8.83-2.37,1.91-4.52,4.09-6.4,6.48-1.55-2.25-2.47-4.87-2.67-7.6Zm2.67,10.8c1.88,2.4,4.03,4.57,6.41,6.48.46,3.03,1.27,5.99,2.41,8.84-3.49.13-6.41-.5-8.41-1.82.51-.64.79-1.44.79-2.26,0-2.03-1.64-3.67-3.67-3.67-.07,0-.13.02-.19.02.2-2.72,1.12-5.35,2.67-7.6Z"/>
</svg>