<?xml version="1.0" encoding="UTF-8"?>
<svg id="Layer_1" data-name="Layer 1" xmlns="http://www.w3.org/2000/svg" viewBox="0 0 64 64">
  <defs>
    <style>
      .cls-1 {
        fill: #6dcdb8;
      }

      .cls-1, .cls-2 {
        stroke-width: 0px;
      }

      .cls-2 {
        fill: #fe5000;
      }
    </style>
  </defs>
  <path class="cls-2" d="m24.67,37.03v-1.76h-13.88v-7.04h17.6v3.44h1.76V10.63c0-.97-.79-1.76-1.76-1.76H10.8c-.97,0-1.76.79-1.76,1.76v24.48c-1.02-.36-1.76-1.33-1.76-2.48V9.75c0-1.46,1.18-2.64,2.64-2.64h19.36c1.46,0,2.64,1.18,2.64,2.64v21.92h1.76V15.03h7.92c1.46,0,2.64,1.18,2.64,2.64v7.65l-1.91-2.86-1.46.98,4.25,6.38,4.25-6.38-1.46-.98-1.91,2.86v-7.65c0-2.43-1.97-4.4-4.4-4.4h-7.92v-3.52c0-2.43-1.97-4.4-4.4-4.4H9.92c-2.43,0-4.4,1.97-4.4,4.4v22.88c0,2.43,1.97,4.4,4.4,4.4h14.76ZM10.8,10.63h17.6v7.04H10.8v-7.04Zm0,8.8h17.6v7.04H10.8v-7.04Z"/>
  <path class="cls-2" d="m12.56,12.39h1.76v3.52h-1.76v-3.52Z"/>
  <path class="cls-2" d="m16.08,12.39h1.76v3.52h-1.76v-3.52Z"/>
  <path class="cls-2" d="m24.88,21.19h1.76v3.52h-1.76v-3.52Z"/>
  <path class="cls-2" d="m21.36,21.19h1.76v3.52h-1.76v-3.52Z"/>
  <path class="cls-2" d="m12.56,29.99h1.76v3.52h-1.76v-3.52Z"/>
  <path class="cls-2" d="m16.08,29.99h1.76v3.52h-1.76v-3.52Z"/>
  <g>
    <path class="cls-1" d="m33.68,31.75v-.04h-1.76v.04h-1.76v-.04h-1.76v.04h-3.52v3.19h0v3.26h0v15.55h-7.92c-1.46,0-2.64-1.18-2.64-2.64v-7.65l1.91,2.86,1.46-.98-4.25-6.38-4.25,6.38,1.46.98,1.91-2.86v7.65c0,2.43,1.97,4.4,4.4,4.4h7.92v4.4h35.2v-28.16h-26.4Zm24.64,26.4h-31.68v-17.6h31.68v17.6Zm0-19.36h-31.68v-5.28h31.68v5.28Z"/>
    <path class="cls-1" d="m28.4,35.27h1.76v1.76h-1.76v-1.76Z"/>
    <path class="cls-1" d="m31.92,35.27h1.76v1.76h-1.76v-1.76Z"/>
    <path class="cls-1" d="m35.44,35.27h1.76v1.76h-1.76v-1.76Z"/>
    <path class="cls-1" d="m45.62,49.78c.78-.79,1.26-1.88,1.26-3.07,0-2.43-1.97-4.4-4.4-4.4s-4.4,1.97-4.4,4.4c0,1.2.48,2.28,1.26,3.07-2.28.9-3.9,3.13-3.9,5.73v.88h14.08v-.88c0-2.6-1.62-4.82-3.9-5.73Zm-3.14-5.71c1.46,0,2.64,1.18,2.64,2.64s-1.18,2.64-2.64,2.64-2.64-1.18-2.64-2.64,1.18-2.64,2.64-2.64Zm-5.19,10.56c.41-2.01,2.19-3.52,4.31-3.52h1.76c2.13,0,3.9,1.51,4.31,3.52h-10.38Z"/>
    <path class="cls-1" d="m28.4,42.31h1.76v1.76h-1.76v-1.76Z"/>
    <path class="cls-1" d="m28.4,45.83h1.76v1.76h-1.76v-1.76Z"/>
    <path class="cls-1" d="m28.4,49.35h1.76v1.76h-1.76v-1.76Z"/>
    <path class="cls-1" d="m54.8,54.63h1.76v1.76h-1.76v-1.76Z"/>
    <path class="cls-1" d="m54.8,51.11h1.76v1.76h-1.76v-1.76Z"/>
    <path class="cls-1" d="m54.8,47.59h1.76v1.76h-1.76v-1.76Z"/>
  </g>
</svg>