<?xml version="1.0" encoding="UTF-8"?>
<svg id="Layer_1" data-name="Layer 1" xmlns="http://www.w3.org/2000/svg" viewBox="0 0 64 64">
  <defs>
    <style>
      .cls-1 {
        fill: #6dcdb8;
      }

      .cls-1, .cls-2 {
        stroke-width: 0px;
      }

      .cls-2 {
        fill: #fe5000;
      }
    </style>
  </defs>
  <path class="cls-2" d="m52.69,32.63c.37,1.05,1.38,1.81,2.56,1.81,1.5,0,2.72-1.22,2.72-2.72s-1.22-2.72-2.72-2.72c-1.18,0-2.19.76-2.56,1.81h-5.62c-.07-1.25-.28-2.46-.62-3.62h1.55c.34,0,.66-.19.81-.5l1.56-3.12h2.31c.37,1.05,1.38,1.81,2.56,1.81,1.5,0,2.72-1.22,2.72-2.72s-1.22-2.72-2.72-2.72c-1.18,0-2.19.76-2.56,1.81h-2.87c-.34,0-.66.19-.81.5l-1.56,3.12h-1.63c-.78-1.84-1.89-3.5-3.25-4.93v-5.39l3.12-1.56c.31-.15.5-.47.5-.81v-2.87c1.05-.37,1.81-1.38,1.81-2.56,0-1.5-1.22-2.72-2.72-2.72s-2.72,1.22-2.72,2.72c0,1.18.76,2.19,1.81,2.56v2.31l-3.12,1.56c-.31.15-.5.47-.5.81v4.31c-1.1-.86-2.32-1.57-3.62-2.12v-6.87c1.05-.37,1.81-1.38,1.81-2.56,0-1.5-1.22-2.72-2.72-2.72s-2.72,1.22-2.72,2.72c0,1.18.76,2.19,1.81,2.56v6.23c-1.16-.34-2.37-.55-3.62-.62V5.45c0-.5-.41-.91-.91-.91h-5.44c-.5,0-.91.41-.91.91v5.47c-1.23.38-2.43.86-3.58,1.45l-3.94-3.94c-.35-.35-.93-.35-1.28,0l-8.15,8.15c-.35.35-.35.93,0,1.28l3.94,3.94c-.59,1.14-1.07,2.34-1.45,3.58h-4.57c-.5,0-.91.41-.91.91v10.87c0,.5.41.91.91.91h4.57c.38,1.23.86,2.43,1.45,3.58l-3.94,3.94c-.35.35-.35.93,0,1.28l8.15,8.15c.35.35.93.35,1.28,0l3.94-3.94c1.14.59,2.34,1.07,3.58,1.45v5.47c0,.5.41.91.91.91h5.44c.5,0,.91-.41.91-.91v-9.99c1.25-.07,2.46-.28,3.62-.62v6.23c-1.05.37-1.81,1.38-1.81,2.56,0,1.5,1.22,2.72,2.72,2.72s2.72-1.22,2.72-2.72c0-1.18-.76-2.19-1.81-2.56v-6.87c1.3-.55,2.52-1.27,3.62-2.12v4.31c0,.34.19.66.5.81l3.12,1.56v2.31c-1.05.37-1.81,1.38-1.81,2.56,0,1.5,1.22,2.72,2.72,2.72s2.72-1.22,2.72-2.72c0-1.18-.76-2.19-1.81-2.56v-2.87c0-.34-.19-.66-.5-.81l-3.12-1.56v-5.39c1.36-1.42,2.47-3.09,3.25-4.93h1.63l1.56,3.12c.15.31.47.5.81.5h2.87c.37,1.05,1.38,1.81,2.56,1.81,1.5,0,2.72-1.22,2.72-2.72s-1.22-2.72-2.72-2.72c-1.18,0-2.19.76-2.56,1.81h-2.31l-1.56-3.12c-.15-.31-.47-.5-.81-.5h-1.55c.34-1.16.55-2.37.62-3.62h5.62Zm2.56-1.81c.5,0,.91.41.91.91s-.41.91-.91.91-.91-.41-.91-.91.41-.91.91-.91Zm0-9.06c.5,0,.91.41.91.91s-.41.91-.91.91-.91-.41-.91-.91.41-.91.91-.91Zm-9.97-15.4c.5,0,.91.41.91.91s-.41.91-.91.91-.91-.41-.91-.91.41-.91.91-.91Zm0,48.92c.5,0,.91.41.91.91s-.41.91-.91.91-.91-.41-.91-.91.41-.91.91-.91ZM36.22,6.36c.5,0,.91.41.91.91s-.41.91-.91.91-.91-.41-.91-.91.41-.91.91-.91Zm-6.34,50.73h-3.62v-5.25c0-.41-.27-.77-.67-.87-1.55-.42-3.04-1.02-4.44-1.8-.35-.2-.79-.13-1.08.15l-3.77,3.77-6.87-6.87,3.77-3.77c.29-.29.35-.73.15-1.08-.78-1.4-1.38-2.9-1.8-4.44-.11-.4-.47-.67-.87-.67h-4.34v-9.06h4.34c.41,0,.77-.27.87-.67.42-1.55,1.02-3.04,1.8-4.44.2-.35.13-.79-.15-1.08l-3.77-3.77,6.87-6.87,3.77,3.77c.29.29.73.35,1.08.15,1.4-.78,2.89-1.38,4.44-1.8.4-.11.67-.47.67-.87v-5.25h3.62v9.08c-8.57.47-15.4,7.59-15.4,16.28s6.83,15.81,15.4,16.28v9.08Zm6.34,0c-.5,0-.91-.41-.91-.91s.41-.91.91-.91.91.41.91.91-.41.91-.91.91Zm-5.44-10.87c-7.99,0-14.49-6.5-14.49-14.49s6.5-14.49,14.49-14.49,14.49,6.5,14.49,14.49-6.5,14.49-14.49,14.49Zm24.46-6.34c.5,0,.91.41.91.91s-.41.91-.91.91-.91-.41-.91-.91.41-.91.91-.91Z"/>
  <g>
    <path class="cls-1" d="m30.79,19.04c-6.99,0-12.68,5.69-12.68,12.68s5.69,12.68,12.68,12.68,12.68-5.69,12.68-12.68-5.69-12.68-12.68-12.68Zm0,23.55c-5.99,0-10.87-4.88-10.87-10.87s4.88-10.87,10.87-10.87,10.87,4.88,10.87,10.87-4.88,10.87-10.87,10.87Z"/>
    <path class="cls-1" d="m34.41,26.29c-.5,0-.91.41-.91.91v9.06c0,.5.41.91.91.91s.91-.41.91-.91v-9.06c0-.5-.41-.91-.91-.91Z"/>
    <path class="cls-1" d="m28.94,26.93c-.11-.38-.47-.65-.87-.65s-.75.26-.87.65l-2.72,9.06c-.14.48.13.98.61,1.13.48.14.98-.13,1.13-.61l.62-2.07h2.46l.62,2.07c.12.39.48.65.87.65.09,0,.17-.01.26-.04.48-.14.75-.65.61-1.13l-2.72-9.06Zm-1.55,5.7l.68-2.28.68,2.28h-1.37Z"/>
  </g>
</svg>