<svg xmlns="http://www.w3.org/2000/svg" width="138.078" height="150" viewBox="0 0 138.078 150">
  <g id="Icon-our_value" data-name="Icon-our value" transform="translate(-1014.636 -4162.251)">
    <path id="Path_41810" data-name="Path 41810" d="M472.88,149.91,448.7,73.055h48.368ZM455.651,78.158,472.88,132.91l17.23-54.752Z" transform="translate(611 4161)" fill="#fe5000"/>
    <path id="Path_41811" data-name="Path 41811" d="M491.568,77.263,472.754,55.208,453.94,77.263l-3.882-3.312,22.7-26.606,22.7,26.606Z" transform="translate(611 4161)" fill="#fe5000"/>
    <rect id="Rectangle_149592" data-name="Rectangle 149592" width="5.104" height="29.509" transform="matrix(0.854, -0.52, 0.52, 0.854, 1045.51, 4212.761)" fill="#fe5000"/>
    <path id="Path_41812" data-name="Path 41812" d="M475.431,24.745h-5.1V1.251l5.1,3.827Z" transform="translate(611 4161)" fill="#6dcdb8"/>
    <path id="Path_41813" data-name="Path 41813" d="M432.652,36.378,417.185,22.319l.625-6.33L436.086,32.6Z" transform="translate(611 4161)" fill="#6dcdb8"/>
    <path id="Path_41814" data-name="Path 41814" d="M513.109,36.378,509.675,32.6,527.95,15.989l.792,6.177Z" transform="translate(611 4161)" fill="#6dcdb8"/>
    <path id="Path_41815" data-name="Path 41815" d="M472.895,151.251,403.636,78.74l3.69-3.524,65.539,68.615L538,74.525l3.717,3.495Z" transform="translate(611 4161)" fill="#fe5000"/>
    <path id="Path_41816" data-name="Path 41816" d="M514.986,52.465h-7.374L528.926,72.9l-112.06.258,21.582-20.691h66.371l4.844-5.1H436.4L404.138,78.288l137.453-.316Z" transform="translate(611 4161)" fill="#fe5000"/>
    <path id="Path_41817" data-name="Path 41817" d="M504.819,52.465,491.337,74.3l4.344,2.681,15.136-24.52Z" transform="translate(611 4161)" fill="#fe5000"/>
    <path id="Path_41818" data-name="Path 41818" d="M507.6,49.53l-.705-.435-2.081,3.37Z" transform="translate(611 4161)" fill="#fe5000"/>
  </g>
</svg>