<svg id="Layer_1" data-name="Layer 1" xmlns="http://www.w3.org/2000/svg" viewBox="0 0 120 120"><defs><style>.cls-1{fill:#6dcdb8;}.cls-2{fill:#fe5000;}</style></defs><path class="cls-1" d="M67.26,46.36,65.07,43l3.72-2.44c7.86-5.19,15.76-10.56,23.48-16l1.63-1.14L97.1,28l3.39-16.27-17-4.59,3.44,4.59L35.23,45.79,33,42.45,81.13,10.68,73.28.21l31.9,8.59-6,28.9L92.94,29c-7.23,5.05-14.61,10.05-22,14.9Z"/><polygon class="cls-1" points="55.61 43.15 53.36 39.84 54.2 39.26 54.19 39.23 87.06 16.95 89.3 20.26 89.3 20.26 55.61 43.15"/><path class="cls-2" d="M43.38,114.08a7.73,7.73,0,0,1-7.74-7.75,7.66,7.66,0,0,1,2.26-5.47l6.81-6.81a7.76,7.76,0,0,1,11,0,7.76,7.76,0,0,1,0,11l-6.81,6.81A7.74,7.74,0,0,1,43.38,114.08Zm6.81-18.3a3.73,3.73,0,0,0-2.65,1.09l-6.81,6.81A3.75,3.75,0,1,0,46,109l6.81-6.81a3.74,3.74,0,0,0-2.65-6.39Z"/><path class="cls-2" d="M88.39,107a7.71,7.71,0,0,1-4.61-1.53L71.22,96.09l2.39-3.21,12.56,9.36a3.73,3.73,0,0,0,2.78.7,3.74,3.74,0,0,0,1.7-6.71L78.09,86.87,69.5,80.66l2.35-3.24,8.61,6.23L93,93a7.74,7.74,0,0,1-3.51,13.87A8.74,8.74,0,0,1,88.39,107Z"/><path class="cls-2" d="M73.61,110.26a7.59,7.59,0,0,1-4.6-1.53L56.44,99.37l2.39-3.2,12.57,9.36a3.77,3.77,0,0,0,5.24-.77,3.75,3.75,0,0,0-.77-5.24L63.31,90.16,65.7,87l12.56,9.36a7.74,7.74,0,0,1-3.51,13.87A7.28,7.28,0,0,1,73.61,110.26Z"/><path class="cls-2" d="M33.58,107.22l-.48,0a7.75,7.75,0,0,1-4.68-13.52l4.44-3.93a7.75,7.75,0,0,1,10.27,11.6l-4.43,3.93A7.68,7.68,0,0,1,33.58,107.22ZM38,91.8a3.73,3.73,0,0,0-2.48.94l-4.43,3.93a3.75,3.75,0,0,0-.32,5.29,3.69,3.69,0,0,0,2.58,1.25,3.73,3.73,0,0,0,2.71-.93l4.43-3.93A3.75,3.75,0,0,0,38,91.8Z"/><path class="cls-2" d="M51.73,119.4A6.64,6.64,0,0,1,47,108.06l5-5a6.64,6.64,0,0,1,9.39,9.4l-5,5A6.6,6.6,0,0,1,51.73,119.4Zm5-14.32a2.62,2.62,0,0,0-1.87.77l-5,5a2.65,2.65,0,0,0,0,3.74,2.73,2.73,0,0,0,3.74,0l5-5a2.64,2.64,0,0,0-1.87-4.51Z"/><path class="cls-2" d="M66.9,117.42A6.6,6.6,0,0,1,62.85,116l-4-3.12,2.46-3.16,4,3.12a2.64,2.64,0,0,0,2,.53,2.6,2.6,0,0,0,1.75-1,2.64,2.64,0,0,0-.47-3.71l-5.63-4.37,2.45-3.16L71,105.53a6.64,6.64,0,0,1-3.23,11.84A8.27,8.27,0,0,1,66.9,117.42Z"/><path class="cls-2" d="M27.16,98a6.65,6.65,0,0,1-4.7-11.34l3.34-3.35a6.65,6.65,0,1,1,9.4,9.4l-3.34,3.34A6.63,6.63,0,0,1,27.16,98ZM30.5,85.37a2.66,2.66,0,0,0-1.87.77l-3.34,3.35A2.64,2.64,0,0,0,29,93.23l3.34-3.35a2.64,2.64,0,0,0-1.87-4.51Z"/><polygon class="cls-2" points="102.72 87.54 99.39 85.32 103.27 79.5 117.47 79.5 114.47 83.5 105.41 83.5 102.72 87.54"/><polygon class="cls-2" points="24.27 87.99 16.6 81.86 2.52 81.86 5.53 77.86 18.01 77.86 26.76 84.87 24.27 87.99"/><polygon class="cls-2" points="54 61.84 36.4 50.64 9.85 49.84 12.97 45.84 37.62 46.68 56.15 58.47 54 61.84"/><path class="cls-2" d="M96.61,98.77A7.71,7.71,0,0,1,92,97.24L79.43,87.88l2.39-3.21L94.39,94a3.75,3.75,0,0,0,4.47-6L86.35,78.69,71.06,68.56l-4.7,5.65a14.82,14.82,0,0,1-13.19,5.31l-1-.16a16.29,16.29,0,0,1-9.37-5.62L41.8,72.45,61.54,49.12H85.22l27.69-6.51-3.08,4.89L85.69,53.12H63.39L47.08,72.4a12.34,12.34,0,0,0,5.92,3l.71.11a10.76,10.76,0,0,0,9.58-3.91l7-8.4,18.4,12.21,12.56,9.36a7.74,7.74,0,0,1-4.64,14Z"/></svg>