<svg id="Layer_1" data-name="Layer 1" xmlns="http://www.w3.org/2000/svg" viewBox="0 0 120 120"><defs><style>.cls-1{fill:#ef5323;}.cls-2{fill:#71c7b5;}.cls-3{fill:#fff;}</style></defs><path class="cls-1" d="M78.4,71a16.26,16.26,0,0,1-6.15-1.37l1.53-3.7c3,1.27,5.57,1.4,7.49.4,2.76-1.43,3.59-4.87,3.6-4.9l3.9.87c0,.21-1.21,5.27-5.66,7.58A10,10,0,0,1,78.4,71Z"/><polygon class="cls-2" points="81.59 53.65 78 51.88 88.79 30.02 90.97 31.05 88.47 23.45 80.6 26.51 82.98 27.58 70.21 53.64 66.62 51.88 77.57 29.54 70.27 26.25 90.96 18.18 97.66 38.65 90.64 35.32 81.59 53.65"/><polygon class="cls-2" points="34.61 54.4 25.68 33.65 25.68 15.64 38.81 26.8 49.67 51.81 46 53.41 35.51 29.25 29.68 24.29 29.68 32.82 38.28 52.82 34.61 54.4"/><path class="cls-2" d="M27.88,35.22l-.4-4c5.85-.58,7.84-4,7.92-4.17L38.93,29C38.81,29.18,36,34.42,27.88,35.22Z"/><polygon class="cls-2" points="58.31 53.5 54.59 52.02 73.5 4.35 86.31 9.92 79 26.51 75.34 24.9 81.03 11.99 75.69 9.67 58.31 53.5"/><path class="cls-2" d="M42.76,32.28,43,21.72a12.46,12.46,0,1,1,9.2,3.61Zm9-27.95a8.47,8.47,0,0,0-5.44,15l.74.61-.09,4.31,4-2.93.92,0a8.51,8.51,0,0,0-.1-17Zm.17,17h0Z"/><rect class="cls-2" x="49.72" y="40.14" width="4" height="12.62"/><path class="cls-1" d="M96.31,54.76h-4V81.53H80.88l.42,2.36c0,.08,1.4,8.11-3.17,13.58-3,3.56-7.87,5.36-14.58,5.36h-2v12.64H27.68V54.76H92.31l4-4H23.68v68.71H65.55V106.78c7-.36,12.23-2.63,15.67-6.77,4.1-4.92,4.44-11.14,4.27-14.48H96.31Z"/><polygon class="cls-3" points="23.14 50.22 27.68 54.76 27.68 50.22 23.14 50.22"/></svg>