<svg id="Layer_1" data-name="Layer 1" xmlns="http://www.w3.org/2000/svg" viewBox="0 0 120 120"><defs><style>.cls-1{fill:#fe5000;}.cls-2{fill:#6dcdb8;}.cls-3{fill:#71c7b5;}</style></defs><path class="cls-1" d="M91.19,119.32H47.64V100.6c-9.74.88-17.47-1.32-23-6.54-7.95-7.5-8.93-19-9-23.78l-11.42.2V40.41C4.25,20.09,19.66,2.72,39.34.86c.84-.08,1.71-.14,2.58-.18H58l-4,4H42c-.72,0-1.51.09-2.29.16C22.07,6.51,8.25,22.13,8.25,40.41v26l11.63-.2-.16,2.19c0,.14-1,14.63,7.68,22.77,5,4.74,12.42,6.49,22,5.21l2.26-.31v19.25H87.19V101.09l4-3Z"/><rect class="cls-1" x="16.95" y="35.9" width="10.67" height="4"/><rect class="cls-2" x="45.53" y="46.13" width="36.95" height="4"/><polygon class="cls-2" points="62.13 67.5 54.36 67.5 54.36 63.5 60.19 63.5 68.36 53.08 79.48 53.08 82.48 57.08 70.3 57.08 62.13 67.5"/><polygon class="cls-2" points="79.48 43.42 68.36 43.42 60.19 32.99 53.18 32.99 53.18 28.99 62.13 28.99 70.3 39.42 82.48 39.42 79.48 43.42"/><path class="cls-2" d="M40.51,54.94a7,7,0,1,1,7-7A7.05,7.05,0,0,1,40.51,54.94Zm0-10.09a3,3,0,1,0,3,3A3.05,3.05,0,0,0,40.51,44.85Z"/><path class="cls-2" d="M49.34,72.79a7,7,0,1,1,7-7A7.05,7.05,0,0,1,49.34,72.79Zm0-10.09a3,3,0,1,0,3,3A3.06,3.06,0,0,0,49.34,62.7Z"/><path class="cls-2" d="M48.15,37.93a7,7,0,1,1,7.05-7A7.05,7.05,0,0,1,48.15,37.93Zm0-10.09a3,3,0,1,0,3.05,3.05A3,3,0,0,0,48.15,27.84Z"/><path class="cls-3" d="M72.27,71.54l-.15-4a20.69,20.69,0,1,0-1.56-41.35l-.15-4a24.69,24.69,0,0,1,1.86,49.35Z"/><path class="cls-3" d="M67.25,92.22l-.08-4,2.59,0,.62-11.7,1.56-.28s3.74-.66,5.71-1.14l1.55-.37,5.24,10.55L88,83.8l-3.2-11.45,1.29-.79a29.82,29.82,0,0,0,8.53-7.84l.94-1.3,10.76,4.75,1.77-3.34-9.79-6.67.49-1.44A29.59,29.59,0,0,0,100.3,45c0-.28,0-.55,0-.82l-.1-1.6,11.25-3.29-.8-3.69L98.9,36.9l-.55-1.44A29.58,29.58,0,0,0,92,25.52l-1.11-1.16,6.5-9.7-3-2.32-8.26,8.4L84.83,20a29.43,29.43,0,0,0-11.07-3.48l-1.6-.17L70.87,4.78l-2.22.08-.15-4L74.43.64l1.36,12.13a33.12,33.12,0,0,1,9.61,3L94.06,7l8.75,6.8L96,24a33.59,33.59,0,0,1,5.49,8.64l12.26-1.34L116.1,42.1l-11.78,3.45a33.59,33.59,0,0,1-1.33,10l10.27,7-5.18,9.81-11.26-5a33.87,33.87,0,0,1-7.41,6.78l3.36,12L82.51,90.34,77,79.29l-2.83.56-.64,12.24Z"/></svg>