<svg id="Layer_1" data-name="Layer 1" xmlns="http://www.w3.org/2000/svg" viewBox="0 0 120 120"><defs><style>.cls-1{fill:#6dcdb8;}.cls-2{fill:#fe5000;}</style></defs><polygon class="cls-1" points="45.41 53.5 36.96 45.42 39.94 40.1 37.57 35.26 31.81 33.83 31.72 23.05 38.14 21.99 39.4 18.48 36.97 12.49 42.89 5.96 48.77 8.07 52.76 6.45 54.86 0.61 64.66 0.77 66.05 5.7 71.17 7.78 75.69 4.99 83.44 12.28 81.11 17.5 82.69 21.38 87.57 22.96 88.55 33.27 82.83 34.88 81.16 39.21 84.14 44.4 75.59 53.32 72.7 50.55 79.18 43.79 76.75 39.55 79.82 31.58 84.25 30.33 83.84 25.96 79.68 24.61 76.76 17.43 78.63 13.25 75.18 10 71.54 12.25 62.73 8.67 61.62 4.72 57.66 4.66 55.92 9.49 48.85 12.36 44.06 10.63 41.62 13.31 43.68 18.39 41.11 25.55 35.75 26.44 35.78 30.69 40.34 31.83 44.45 40.23 41.96 44.67 48.18 50.61 45.41 53.5"/><path class="cls-1" d="M60.28,42.54A13.14,13.14,0,1,1,73.42,29.4,13.15,13.15,0,0,1,60.28,42.54Zm0-22.27a9.14,9.14,0,1,0,9.14,9.13A9.14,9.14,0,0,0,60.28,20.27Z"/><rect class="cls-2" x="51.15" y="51.84" width="4" height="29.34" transform="translate(-25.33 33.51) rotate(-28.57)"/><rect class="cls-2" x="52.51" y="64.51" width="29.34" height="4" transform="translate(-23.36 93.7) rotate(-61.43)"/><path class="cls-2" d="M74.33,119.06,60.12,108.73,45.9,119.06l5.43-16.71L37.12,92H54.69l5.43-16.71L65.55,92H83.12L68.9,102.35ZM60.12,103.79l6.61,4.8-2.53-7.77L70.81,96H62.64l-2.52-7.77L57.59,96H49.43l6.6,4.8-2.52,7.77Z"/><path class="cls-2" d="M30.32,82.6l2,6.05h6.35L33.5,92.38l2,6-5.14-3.73-5.14,3.73,2-6L22,88.65h6.36l2-6.05m0-12.94-3.8,11.71-1.07,3.28H9.69l10,7.23,2.79,2-1.06,3.28L17.57,108.9l10-7.24,2.79-2,2.79,2,10,7.24-3.8-11.71L38.2,93.91l2.79-2,10-7.23H35.19l-1.06-3.28L30.32,69.66Z"/><path class="cls-2" d="M89.68,82.6l2,6.05H98l-5.14,3.73,2,6-5.14-3.73-5.14,3.73,2-6-5.14-3.73h6.35l2-6.05m0-12.94L85.87,81.37l-1.06,3.28H69.05l10,7.23,2.79,2-1.07,3.28-3.8,11.71,10-7.24,2.79-2,2.79,2,10,7.24L98.62,97.19l-1.06-3.28,2.79-2,10-7.23H94.55l-1.07-3.28-3.8-11.71Z"/><polygon class="cls-2" points="100.15 62.95 76.05 52.34 73.04 47.12 69.57 49.12 73.24 55.47 95.82 65.41 100.15 62.95"/><polygon class="cls-2" points="95.82 65.41 96.14 65.55 96 87.03 100 87.05 100.14 65.41 95.82 65.41"/><polygon class="cls-2" points="47.41 47.12 44.4 52.34 20.33 62.93 24.28 65.56 47.2 55.47 50.87 49.12 47.41 47.12"/><polygon class="cls-2" points="19.86 87.88 23.86 87.95 24.28 65.56 20.28 65.56 19.86 87.88"/></svg>