<svg xmlns="http://www.w3.org/2000/svg" width="150" height="149.647" viewBox="0 0 150 149.647">
  <g id="Icon-Our_Purpose" data-name="Icon-Our Purpose" transform="translate(-611 -4161)">
    <path id="Path_41788" data-name="Path 41788" d="M73.41,149.647,68.3,145.816V139.1H73.41Z" transform="translate(611 4161)" fill="#fe5000"/>
    <path id="Path_41789" data-name="Path 41789" d="M73.41,18.314H68.3V7.843l5.107,3.831Z" transform="translate(611 4161)" fill="#fe5000"/>
    <path id="Path_41790" data-name="Path 41790" d="M3.83,76.146,0,81.253H10.351V76.146Z" transform="translate(611 4161)" fill="#fe5000"/>
    <path id="Path_41791" data-name="Path 41791" d="M138.157,81.161h-6.838V76.054h10.669Z" transform="translate(611 4161)" fill="#fe5000"/>
    <path id="Path_41792" data-name="Path 41792" d="M70.993,89.11A10.365,10.365,0,1,1,81.358,78.745,10.377,10.377,0,0,1,70.993,89.11m0-15.622a5.257,5.257,0,1,0,5.257,5.257,5.263,5.263,0,0,0-5.257-5.257" transform="translate(611 4161)" fill="#fe5000"/>
    <path id="Path_41793" data-name="Path 41793" d="M70.993,103.29A24.544,24.544,0,1,1,79.728,55.8L77.91,60.575A19.415,19.415,0,1,0,89.271,72.117l4.8-1.744A24.557,24.557,0,0,1,70.993,103.29" transform="translate(611 4161)" fill="#6dcdb8"/>
    <path id="Path_41794" data-name="Path 41794" d="M70.993,121.968A43.222,43.222,0,1,1,91.314,40.59L88.91,45.1a38.089,38.089,0,1,0,15.821,15.9l4.519-2.382a43.239,43.239,0,0,1-38.257,63.356" transform="translate(611 4161)" fill="#fe5000"/>
    <path id="Path_41795" data-name="Path 41795" d="M70.993,141.2A62.452,62.452,0,1,1,103.074,25.153l-2.628,4.38A57.313,57.313,0,1,0,120.3,49.453l4.389-2.613a62.467,62.467,0,0,1-53.7,94.358" transform="translate(611 4161)" fill="#fe5000"/>
    <path id="Path_41796" data-name="Path 41796" d="M132.307,36.553l-16.262-2.6-2.6-16.263L131.139,0l-.364,19.225L150,18.861ZM120.5,29.5l10.035,1.6,6.892-6.891-11.863.225.224-11.863L118.9,19.46Z" transform="translate(611 4161)" fill="#fe5000"/>
    <rect id="Rectangle_149591" data-name="Rectangle 149591" width="76.487" height="5.108" transform="matrix(0.707, -0.707, 0.707, 0.707, 685.051, 4233.33)" fill="#fe5000"/>
  </g>
</svg>