<svg xmlns="http://www.w3.org/2000/svg" width="150" height="127.654" viewBox="0 0 150 127.654">
  <g id="Icon-our_vision" data-name="Icon-our vision" transform="translate(-807.923 -4172.412)">
    <path id="Path_41797" data-name="Path 41797" d="M274.45,93.466l-5.055,3.791V84.022h5.055Z" transform="translate(611 4161)" fill="#fe5000"/>
    <path id="Path_41798" data-name="Path 41798" d="M274.45,66.155h-5.055V53.221l5.055,3.791Z" transform="translate(611 4161)" fill="#fe5000"/>
    <path id="Path_41799" data-name="Path 41799" d="M262.9,77.959h-13L253.7,72.9H262.9Z" transform="translate(611 4161)" fill="#fe5000"/>
    <path id="Path_41800" data-name="Path 41800" d="M290.149,77.959h-9.434V72.9H293.94Z" transform="translate(611 4161)" fill="#fe5000"/>
    <path id="Path_41801" data-name="Path 41801" d="M271.922,102.312a27.073,27.073,0,1,1,27.073-27.073,27.1,27.1,0,0,1-27.073,27.073m0-49.091A22.018,22.018,0,1,0,293.94,75.239a22.042,22.042,0,0,0-22.018-22.018" transform="translate(611 4161)" fill="#6dcdb8"/>
    <path id="Path_41802" data-name="Path 41802" d="M271.922,86.391a11.152,11.152,0,1,1,11.152-11.152,11.166,11.166,0,0,1-11.152,11.152m0-17.249a6.1,6.1,0,1,0,6.1,6.1,6.1,6.1,0,0,0-6.1-6.1" transform="translate(611 4161)" fill="#fe5000"/>
    <path id="Path_41803" data-name="Path 41803" d="M271.922,103.412c-39.635,0-71.236-25.136-72.562-26.206l-2.437-1.967,2.437-1.967c1.326-1.07,32.927-26.206,72.562-26.206S343.16,72.2,344.486,73.272l2.437,1.967-2.437,1.967c-1.326,1.07-32.928,26.206-72.564,26.206M205.188,75.239c8.33,5.915,35.268,23.118,66.734,23.118s58.406-17.2,66.736-23.118c-8.33-5.915-35.269-23.118-66.736-23.118s-58.4,17.2-66.734,23.118" transform="translate(611 4161)" fill="#fe5000"/>
    <path id="Path_41804" data-name="Path 41804" d="M274.45,139.066l-5.055-3.791V118.526h5.055Z" transform="translate(611 4161)" fill="#fe5000"/>
    <path id="Path_41805" data-name="Path 41805" d="M274.45,31.953h-5.055V11.412L274.45,15.2Z" transform="translate(611 4161)" fill="#fe5000"/>
    <path id="Path_41806" data-name="Path 41806" d="M236.552,42.343,220.574,27.819l6.345-1.065L239.953,38.6Z" transform="translate(611 4161)" fill="#fe5000"/>
    <path id="Path_41807" data-name="Path 41807" d="M317.215,123.608,303.892,111.5l3.4-3.74,15.978,14.524Z" transform="translate(611 4161)" fill="#fe5000"/>
    <path id="Path_41808" data-name="Path 41808" d="M307.294,42.343l-3.4-3.741,13.034-11.848,6.345,1.065Z" transform="translate(611 4161)" fill="#fe5000"/>
    <path id="Path_41809" data-name="Path 41809" d="M223.975,126.022l-.022-6.812,12.6-11.453,3.4,3.741Z" transform="translate(611 4161)" fill="#fe5000"/>
  </g>
</svg>