<svg id="LT_Hybrid_IT_management" data-name="LT Hybrid IT management" xmlns="http://www.w3.org/2000/svg" viewBox="0 0 240 240"><defs><style>.cls-1{fill:none;stroke:#f2f1ee;stroke-linecap:round;stroke-linejoin:round;stroke-width:5.48px;}</style></defs><line class="cls-1" x1="75.99" y1="20.98" x2="23.54" y2="51.87"/><polyline class="cls-1" points="105.12 175.13 159.61 143.04 159.61 57.38 96.76 20.36"/><line class="cls-1" x1="23.41" y1="148.47" x2="73.11" y2="177.74"/><line class="cls-1" x1="14.18" y1="69.92" x2="14.18" y2="128.73"/><path class="cls-1" d="M148.62,224.75a75.21,75.21,0,0,1-42.89-21.92C76,172.53,76,123.37,105.69,93.05"/><path class="cls-1" d="M219.23,196.06a77.37,77.37,0,0,1-5.88,6.73A75.19,75.19,0,0,1,171.4,224.6"/><path class="cls-1" d="M230.47,119.81a79.35,79.35,0,0,1-.43,57.33"/><path class="cls-1" d="M174.33,71.77a75.21,75.21,0,0,1,39,21.24,78.58,78.58,0,0,1,5.92,6.77"/><path class="cls-1" d="M105.69,93.05a75.35,75.35,0,0,1,39.23-21.33"/><ellipse class="cls-1" cx="225.7" cy="109.36" rx="10.25" ry="10.45"/><path class="cls-1" d="M229.94,177.1a10.46,10.46,0,0,1,6.26,9.63A10.25,10.25,0,1,1,226,176.28a10,10,0,0,1,4,.82"/><ellipse class="cls-1" cx="159.91" cy="225.55" rx="10.25" ry="10.45"/><polygon class="cls-1" points="3.8 134.85 3.8 147.08 14.18 153.19 24.56 147.08 24.56 134.85 14.18 128.73 3.8 134.85"/><polygon class="cls-1" points="3.8 52.48 3.8 64.7 14.18 70.82 24.56 64.7 24.56 52.48 14.18 46.36 3.8 52.48"/><polygon class="cls-1" points="75.99 10.11 75.99 22.34 86.37 28.45 96.76 22.34 96.76 10.11 86.37 4 75.99 10.11"/></svg>