<svg id="LT_AI_Ready" data-name="LT AI Ready" xmlns="http://www.w3.org/2000/svg" viewBox="0 0 240 240"><defs><style>.cls-1,.cls-2{fill:none;stroke:#f2f1ee;stroke-miterlimit:10;stroke-width:5.17px;}.cls-1{stroke-linecap:round;}</style></defs><path class="cls-1" d="M15.49,133.6a19.35,19.35,0,0,0,17.24,10.7,19.58,19.58,0,0,0,19.39-19.77c0-38.21,30.39-69.19,67.88-69.19"/><path class="cls-1" d="M110.27,16.25C59.82,20.9,19.5,61.36,14,112.5"/><path class="cls-1" d="M226,112.5c-5.47-50.66-45.09-90.84-94.89-96.11"/><path class="cls-1" d="M226.12,135.62c-5.45,54.84-50.88,97.63-106.12,97.63-55.91,0-101.77-43.84-106.3-99.64"/><ellipse class="cls-2" cx="226.67" cy="123.71" rx="9.7" ry="9.88"/><ellipse class="cls-2" cx="13.33" cy="123.71" rx="9.7" ry="9.88"/><ellipse class="cls-2" cx="120" cy="16.63" rx="9.7" ry="9.88"/><path class="cls-1" d="M149.09,124.53c0-16.38-13-29.65-29.09-29.65a29.14,29.14,0,0,0-27.14,18.94"/><path class="cls-1" d="M120,55.34c37.49,0,67.88,31,67.88,69.19a19.4,19.4,0,1,1-38.79,0"/><ellipse class="cls-2" cx="90.91" cy="123.71" rx="9.7" ry="9.88"/></svg>