<svg id="LT_Cloud_services_pricing" data-name="LT Cloud services pricing" xmlns="http://www.w3.org/2000/svg" viewBox="0 0 240 240"><defs><style>.cls-1{fill:none;stroke:#f2f1ee;stroke-linejoin:round;stroke-width:5.51px;}</style></defs><path id="cloud--services--pricing" class="cls-1" d="M165.45,123.87V137m0,64.26v15.48m48.76-96.28a65.26,65.26,0,0,0-93.73,0,68.78,68.78,0,0,0,0,95.79,65.26,65.26,0,0,0,93.73,0A68.8,68.8,0,0,0,214.21,120.49ZM119.52,23.72a65.26,65.26,0,0,0-93.73,0,68.8,68.8,0,0,0,0,95.79,65.26,65.26,0,0,0,93.73,0A68.78,68.78,0,0,0,119.52,23.72Zm-93.23,47V24.22m22.38,88L9.31,89M95,113.13,55.68,136.36M119,72.56V119M96.65,31,136,54.27M50.27,30.1,89.63,6.87m-17,45.39V91M91.6,71.62H53.72m134.45,67.73h-30.3a15.49,15.49,0,0,0,0,31H173a15.49,15.49,0,0,1,0,31h-30.3"/></svg>