<?xml version="1.0" encoding="UTF-8"?>
<svg id="Layer_1" data-name="Layer 1" xmlns="http://www.w3.org/2000/svg" viewBox="0 0 64 64">
  <defs>
    <style>
      .cls-1 {
        fill: #6dcdb8;
      }

      .cls-1, .cls-2 {
        stroke-width: 0px;
      }

      .cls-2 {
        fill: #fe5000;
      }
    </style>
  </defs>
  <path class="cls-2" d="m55.09,51.64c.62,0,1.07-.71.8-1.34-1.16-2.32-3.57-3.74-6.15-3.74-2.94,0-5.17,1.52-6.24,3.92h-23.18c-1.16-2.32-3.57-3.92-6.15-3.92s-4.9,1.43-6.15,3.74c-.27.62.09,1.34.8,1.34h4.28l1.16,1.87-1.16,1.87h-4.19c-.62,0-1.07.71-.8,1.34,1.16,2.32,3.57,3.74,6.15,3.74,2.76,0,5.08-1.52,6.24-3.83h23.09c.98,2.23,3.03,3.92,6.24,3.92,2.59,0,4.9-1.43,6.15-3.74.27-.62-.09-1.34-.8-1.34h-4.28l-1.16-1.87,1.16-1.87h4.19v-.09Zm-40.83,7.04c-1.34,0-2.67-.53-3.57-1.43h2.94c.27,0,.62-.18.71-.45l1.78-2.76c.18-.27.18-.62,0-.98l-1.78-2.76c-.18-.27-.45-.45-.71-.45h-2.94c.98-.89,2.23-1.43,3.57-1.43,6.78,0,6.6,10.25,0,10.25h0Zm6.78-3.92c.18-.8.18-1.69,0-2.5h21.93c-.18.8-.18,1.6,0,2.41l-21.93.09Zm28.62-4.46l-1.78,2.76c-.18.27-.18.62,0,.98l1.78,2.76c.18.27.45.45.71.45h3.03c-.89.89-2.23,1.43-3.57,1.43-6.86,0-6.69-10.25,0-10.25,1.34,0,2.67.53,3.57,1.43h-3.03c-.27,0-.53.18-.71.45h0Z"/>
  <path class="cls-1" d="m53.57,19.19c-.8-4.9-5.35-8.2-9.45-8.02-4.01-10.43-18.99-10.25-22.73.27-5.62-1.16-10.79,2.59-11.59,7.93-3.57,1.25-5.88,4.55-5.88,8.38,0,4.9,4.01,8.83,8.83,8.83h2.5c.53,0,.89-.36.89-.89s-.36-.89-.89-.89h-2.5c-3.92,0-7.04-3.21-7.04-7.04,0-3.21,2.05-5.97,5.17-6.86.36-.09.62-.45.62-.8.36-4.72,5.08-8.29,10.16-6.78.45.18.98-.18,1.07-.62,2.76-9.81,16.67-10.07,19.88-.36.09.45.53.62.98.62,3.48-.53,7.85,2.5,8.29,7.04,0,.36.36.71.71.8,3.3.62,5.71,3.57,5.71,6.95,0,3.92-3.21,7.04-7.04,7.04h-2.41c-.53,0-.89.36-.89.89s.36.89.89.89h2.41c4.9,0,8.83-3.92,8.83-8.83.09-4.01-2.67-7.49-6.51-8.56h0Z"/>
  <path class="cls-1" d="m25.05,14.29c.45.18.98-.18,1.07-.62,1.78-6.42,11.05-6.69,13.11-.18.18.45.62.71,1.16.53.45-.18.71-.62.53-1.16-2.67-8.2-14.26-7.85-16.58.27,0,.53.27.98.71,1.16h0Z"/>
  <path class="cls-2" d="m17.82,29.8c-.53,0-.89.36-.89.89v5.26c0,.53.36.89.89.89h2.5c.27.8.53,1.52.89,2.23l-1.78,1.78c-.36.36-.36.89,0,1.25l3.74,3.74c.18.18.36.27.62.27s.45-.09.62-.27l1.78-1.69c.71.36,1.52.71,2.23.89v2.5c0,.53.36.89.89.89h5.35c.53,0,.89-.36.89-.89v-2.5c.8-.27,1.52-.53,2.23-.89l1.69,1.69c.18.18.36.27.62.27s.45-.09.62-.27l3.74-3.74c.18-.18.27-.36.27-.62s-.09-.45-.27-.62l-1.69-1.69c.36-.71.71-1.52.89-2.23h2.5c.53,0,.89-.36.89-.89v-5.26c0-.53-.36-.89-.89-.89h-2.5c-.27-.8-.53-1.52-.89-2.23l1.69-1.78c.18-.18.27-.36.27-.62s-.09-.45-.27-.62l-3.74-3.74c-.36-.36-.89-.36-1.25,0l-1.69,1.69c-.71-.36-1.52-.71-2.23-.89v-2.41c0-.53-.36-.89-.89-.89h-5.35c-.53,0-.89.36-.89.89v2.5c-.8.27-1.52.53-2.23.89l-1.78-1.69c-.36-.36-.89-.36-1.25,0l-3.74,3.74c-.36.36-.36.89,0,1.25l1.69,1.78c-.36.71-.71,1.52-.89,2.23h-2.41v-.18Zm4.01,1.07c.27-1.07.62-2.05,1.25-3.03.18-.36.18-.8-.09-1.07l-1.6-1.6,2.5-2.5,1.6,1.6c.27.27.71.36,1.07.09.98-.62,2.05-.98,3.03-1.25.45-.09.71-.45.71-.89v-2.23h3.48v2.23c0,.45.27.8.71.89,1.07.27,2.05.62,3.03,1.25.36.18.8.18,1.07-.09l1.6-1.6,2.5,2.5-1.6,1.6c-.27.27-.36.71-.09,1.07.53.98.98,1.96,1.25,3.03.09.45.45.71.89.71h2.23v3.48h-2.23c-.45,0-.8.27-.89.71-.27,1.07-.71,2.05-1.25,3.03-.18.36-.18.8.09,1.07l1.6,1.6-2.5,2.5-1.6-1.6c-.27-.27-.71-.36-1.07-.09-.89.53-1.96.98-3.03,1.25-.45.09-.71.45-.71.89v2.23h-3.57v-2.23c0-.45-.27-.8-.71-.89-1.07-.27-2.05-.62-3.03-1.25-.36-.18-.8-.18-1.07.09l-1.6,1.6-2.5-2.5,1.6-1.6c.27-.27.36-.71.09-1.07-.62-.98-.98-1.96-1.25-3.03-.09-.45-.45-.71-.89-.71h-2.23v-3.48h2.23c.53,0,.89-.27.98-.71h0Z"/>
  <path class="cls-2" d="m32,40.5c3.92,0,7.13-3.21,7.13-7.13s-3.21-7.13-7.13-7.13-7.13,3.21-7.13,7.13,3.21,7.13,7.13,7.13Zm0-12.57c2.94,0,5.35,2.41,5.35,5.35s-2.41,5.35-5.35,5.35-5.35-2.41-5.35-5.35,2.41-5.35,5.35-5.35h0Z"/>
</svg>