<svg id="Layer_1" data-name="Layer 1" xmlns="http://www.w3.org/2000/svg" viewBox="0 0 120 120"><defs><style>.cls-1{fill:#fe5000;}.cls-2{fill:#6dcdb8;}.cls-3{fill:#fff;}</style></defs><rect class="cls-1" x="2.81" y="64.51" width="114.18" height="4"/><rect class="cls-1" x="34.72" y="89.08" width="21.86" height="4" transform="matrix(0.14, -0.99, 0.99, 0.14, -51.07, 123.09)"/><rect class="cls-1" x="72.13" y="80.15" width="4" height="21.74" transform="translate(-12.37 11.66) rotate(-8.3)"/><path class="cls-1" d="M86.69,109.27H33.1V99.78H86.69Zm-49.59-4H82.69v-1.49H37.1Z"/><polygon class="cls-2" points="58.27 52.38 34.1 36.61 14.26 48.59 12.7 46.03 34.16 33.07 58.53 48.97 72.97 42.48 74.19 45.21 58.27 52.38"/><path class="cls-2" d="M34.15,41.54a6.12,6.12,0,0,1-.74,0,6.31,6.31,0,0,1-5.54-7A6.31,6.31,0,0,1,40.4,36h0a6.32,6.32,0,0,1-2.35,4.22A6.25,6.25,0,0,1,34.15,41.54Zm0-9.61a3.31,3.31,0,0,0-3.28,2.93,3.31,3.31,0,0,0,6.57.76h0A3.32,3.32,0,0,0,34.51,32Z"/><path class="cls-2" d="M90,59.71l-1.53-3.83a7.21,7.21,0,0,1-3.87-.46l-2.35,3L77.1,55.65l1.45-3.89A7.62,7.62,0,0,1,76.17,49l-3.92.53-1.16-4.41L74,44.31l.48,1.84,3.69-.5.36,1.24a4.67,4.67,0,0,0,2.39,2.74l1.44.5-1.53,4.11.61.32L84,51.36l1.18,1a4.23,4.23,0,0,0,3.77.34l1.32-.41,1.53,3.85.84-.22-.54-4.1,1.36-.29a4.27,4.27,0,0,0,3.13-2.17L97.15,48l3.74,1.5.38-.58-3.34-2.83,1-1.15a4.56,4.56,0,0,0,.73-3.56l-.26-1.24,3.45-1.38-.23-.88,2.9-.76.9,3.46L102.75,42a7.56,7.56,0,0,1-.71,3.62l3.17,2.68-3.14,4.89-3.5-1.43a7.26,7.26,0,0,1-3.16,2.29L96,58.15Z"/><path class="cls-2" d="M71.69,47.34l-1.16-4.41,3.68-1.46a7.65,7.65,0,0,1,.71-3.61l-3.16-2.69,3.14-4.89,3.5,1.43a7.28,7.28,0,0,1,3.15-2.29L81,25.33l6-1.56,1.53,3.83a7.41,7.41,0,0,1,3.87.46l2.35-3,5.13,2.73-1.45,3.89a7.64,7.64,0,0,1,2.39,2.81l3.92-.53.9,3.45-2.9.76-.23-.88-3.69.5-.37-1.23a4.54,4.54,0,0,0-2.38-2.74l-1.45-.51,1.53-4.1-.61-.33L93,32.12l-1.18-1A4.23,4.23,0,0,0,88,30.78l-1.32.41-1.54-3.84-.84.22.54,4.1L83.52,32a4.21,4.21,0,0,0-3.13,2.17l-.57,1.37L76.07,34l-.37.58L79,37.41l-1,1.15a4.65,4.65,0,0,0-.74,3.57l.27,1.24-3.45,1.37.48,1.84Z"/><path class="cls-2" d="M88.47,51a9.13,9.13,0,1,1,8.85-11.44h0a9.14,9.14,0,0,1-6.53,11.14A9.23,9.23,0,0,1,88.47,51Zm0-15.27a6.36,6.36,0,0,0-1.56.2,6.13,6.13,0,1,0,6.84,9,6.12,6.12,0,0,0,.64-4.64h0a6.17,6.17,0,0,0-5.92-4.59Z"/><polygon class="cls-1" points="115.39 14.73 115.39 78.33 111.36 78.26 4.4 78.26 4.4 14.73 115.39 14.73 119.39 10.73 119.39 10.73 0.4 10.73 0.4 82.26 111.33 82.26 119.39 82.39 119.39 14.73 115.39 14.73"/><polygon class="cls-3" points="87.55 98.91 82.69 103.78 87.55 103.78 87.55 98.91"/></svg>