<svg id="Layer_1" data-name="Layer 1" xmlns="http://www.w3.org/2000/svg" viewBox="0 0 120 120"><defs><style>.cls-1{fill:#fe5000;}.cls-2{fill:#6dcdb8;}</style></defs><path class="cls-1" d="M84.08,119.21H40.34V101.72H32.8a21.55,21.55,0,0,1-14-5.27,21.64,21.64,0,0,1-7-15.8v-6H.6V46.16A37,37,0,0,1,9.79,21.43c.29-.33.59-.66.9-1A39.44,39.44,0,0,1,35.83,8.71H56.1l-4,4h-16A35.44,35.44,0,0,0,13.58,23.21c-.27.29-.54.58-.8.88A33,33,0,0,0,4.6,46.16V70.7H15.73v10a17.53,17.53,0,0,0,5.69,12.81A17.4,17.4,0,0,0,32.8,97.72H44.34v17.49H80.08V86.3l4-4Z"/><path class="cls-1" d="M17,52.82a5.17,5.17,0,1,1,5.17-5.16A5.16,5.16,0,0,1,17,52.82Zm0-6.33a1.17,1.17,0,1,0,1.17,1.17A1.17,1.17,0,0,0,17,46.49Z"/><path class="cls-2" d="M79.63,76.53A33.34,33.34,0,1,1,113,43.19,33.37,33.37,0,0,1,79.63,76.53Zm0-62.68A29.34,29.34,0,1,0,109,43.19,29.38,29.38,0,0,0,79.63,13.85Z"/><path class="cls-2" d="M79.63,66.26A23.07,23.07,0,1,1,102.7,43.19,23.1,23.1,0,0,1,79.63,66.26Zm0-42.13A19.07,19.07,0,1,0,98.7,43.19,19.08,19.08,0,0,0,79.63,24.13Z"/><polygon class="cls-2" points="81.52 44.79 80.69 39.96 117.28 3.37 120.11 6.2 81.52 44.79"/><path class="cls-2" d="M80.11,55.66A12.29,12.29,0,1,1,92.4,43.37,12.3,12.3,0,0,1,80.11,55.66Zm0-20.58a8.29,8.29,0,1,0,8.29,8.29A8.3,8.3,0,0,0,80.11,35.08Z"/><polygon class="cls-2" points="120 12.77 110.73 12.77 110.73 3.79 114.73 3.79 114.73 8.77 120 8.77 120 12.77"/></svg>